<svg xmlns="http://www.w3.org/2000/svg" width="324.618" height="837.471" viewBox="0 0 324.618 837.471">
  <g id="Group_42" data-name="Group 42" transform="translate(-1703.347 -230.88)">
    <g id="Group_22" data-name="Group 22" transform="translate(48.568 -35.172)">
      <g id="Group_21" data-name="Group 21">
        <path id="Path_72" data-name="Path 72" d="M3903.242-1838.448h-93.271l-36.811,36.811H3687.09" transform="translate(-1968 2134.448)" fill="none" stroke="#c8c8c8" stroke-width="3"/>
        <path id="Path_71" data-name="Path 71" d="M5.724,0A5.724,5.724,0,1,1,0,5.724,5.724,5.724,0,0,1,5.724,0Z" transform="translate(1712.276 326.724)" fill="#c8c8c8"/>
      </g>
      <g id="Group_20" data-name="Group 20">
        <path id="Path_68" data-name="Path 68" d="M3931.51-1838.448H3809.972l-36.811,36.811h-57.8" transform="translate(-1968 2106)" fill="none" stroke="#c8c8c8" stroke-width="3"/>
        <path id="Path_75" data-name="Path 75" d="M5.724,0A5.724,5.724,0,1,1,0,5.724,5.724,5.724,0,0,1,5.724,0Z" transform="translate(1741.633 298.638)" fill="#c8c8c8"/>
      </g>
    </g>
    <g id="Group_34" data-name="Group 34" transform="translate(5.942 15.667)">
      <g id="Group_21-2" data-name="Group 21" transform="translate(2035.577 -893.759) rotate(90)">
        <path id="Path_72-2" data-name="Path 72" d="M3903.242-1838.448h-93.271l-36.811,36.811H3687.09" transform="translate(-1968 2134.448)" fill="none" stroke="#c8c8c8" stroke-width="3"/>
        <path id="Path_71-2" data-name="Path 71" d="M5.724,0A5.724,5.724,0,1,1,0,5.724,5.724,5.724,0,0,1,5.724,0Z" transform="translate(1712.276 326.724)" fill="#c8c8c8"/>
      </g>
      <g id="Group_20-2" data-name="Group 20" transform="translate(2049.663 -910.825) rotate(90)">
        <path id="Path_68-2" data-name="Path 68" d="M3931.51-1838.448H3809.972l-36.811,36.811h-57.8" transform="translate(-1968 2106)" fill="none" stroke="#c8c8c8" stroke-width="3"/>
        <path id="Path_75-2" data-name="Path 75" d="M5.724,0A5.724,5.724,0,1,1,0,5.724,5.724,5.724,0,0,1,5.724,0Z" transform="translate(1741.633 298.638)" fill="#c8c8c8"/>
      </g>
      <g id="Group_21-3" data-name="Group 21" transform="matrix(0.643, 0.766, -0.766, 0.643, 927.612, -658.371)">
        <path id="Path_72-3" data-name="Path 72" d="M3903.242-1838.448h-93.271l-36.811,36.811H3687.09" transform="translate(-1968 2134.448)" fill="none" stroke="#c8c8c8" stroke-width="3"/>
        <path id="Path_71-3" data-name="Path 71" d="M5.724,0A5.724,5.724,0,1,1,0,5.724,5.724,5.724,0,0,1,5.724,0Z" transform="translate(1712.276 326.724)" fill="#c8c8c8"/>
      </g>
      <g id="Group_20-3" data-name="Group 20" transform="translate(43.568 508.43)">
        <path id="Path_68-3" data-name="Path 68" d="M3931.51-1838.448H3809.972l-36.811,36.811h-57.8" transform="translate(-1968 2106)" fill="none" stroke="#c8c8c8" stroke-width="3"/>
        <path id="Path_75-3" data-name="Path 75" d="M5.724,0A5.724,5.724,0,1,1,0,5.724,5.724,5.724,0,0,1,5.724,0Z" transform="translate(1741.633 298.638)" fill="#c8c8c8"/>
      </g>
      <g id="Group_33" data-name="Group 33" transform="translate(1798.146 842.42) rotate(-3)">
        <path id="Path_68-4" data-name="Path 68" d="M3931.51-1801.637H3809.972l-36.811-36.811h-57.8" transform="translate(-3709.633 1844.172)" fill="none" stroke="#c8c8c8" stroke-width="3"/>
        <path id="Path_75-4" data-name="Path 75" d="M5.724,11.448A5.724,5.724,0,1,0,0,5.724,5.724,5.724,0,0,0,5.724,11.448Z" fill="#c8c8c8"/>
      </g>
    </g>
  </g>
</svg>
