<svg id="linkedin" xmlns="http://www.w3.org/2000/svg" width="19.237" height="19.237" viewBox="0 0 19.237 19.237">
  <path id="Path_61" data-name="Path 61" d="M20.917,20.74h0V13.684c0-3.451-.743-6.11-4.778-6.11a4.189,4.189,0,0,0-3.773,2.074h-.056V7.9H8.489V20.739h3.984V14.38c0-1.674.317-3.293,2.391-3.293,2.043,0,2.074,1.911,2.074,3.4V20.74Z" transform="translate(-1.685 -1.503)" fill="#fff"/>
  <path id="Path_62" data-name="Path 62" d="M.4,7.977H4.384V20.82H.4Z" transform="translate(-0.079 -1.583)" fill="#fff"/>
  <path id="Path_63" data-name="Path 63" d="M2.31,0A2.321,2.321,0,1,0,4.62,2.31,2.311,2.311,0,0,0,2.31,0Z" fill="#fff"/>
</svg>
