<svg xmlns="http://www.w3.org/2000/svg" width="654.193" height="109.388" viewBox="0 0 654.193 109.388">
  <g id="Group_13" data-name="Group 13" transform="translate(-91 -460.243)">
    <g id="Group_1" data-name="Group 1" transform="translate(91 460.243)">
      <path id="Path_1" data-name="Path 1" d="M659.538,213.1a59.74,59.74,0,0,1-6.836-.936,40.661,40.661,0,0,1-32.422-36.3,74.327,74.327,0,0,1,.3-12.643,41.517,41.517,0,0,1,11.894-23.619,39.624,39.624,0,0,1,23.544-11.519,62.048,62.048,0,0,1,12.512-.019c9.571,1.2,17.363,4.814,23.769,10.976,6.949,6.687,10.9,14.553,12.493,24.911a53.024,53.024,0,0,1,.487,7.455l.112,4.907h-65.8l.112.524c.056.281.318,1.292.562,2.248,2.173,8.41,8.522,14.16,17.588,15.9a37.112,37.112,0,0,0,10.676-.094,27.2,27.2,0,0,0,13.036-6.368l1.217-1.124,8.466,3.952c4.645,2.191,8.466,4.064,8.466,4.158,0,.412-3.259,4.233-5.357,6.275-6.537,6.35-13.617,9.627-23.656,10.976A99.815,99.815,0,0,1,659.538,213.1Zm25.005-54.224c-3.559-9.758-14.048-15.434-25.417-13.729a23.78,23.78,0,0,0-10.358,4.027,18.243,18.243,0,0,0-5.076,5.319,47.293,47.293,0,0,0-3.165,5.788c0,.056,10.021.112,22.289.112H685.1Z" transform="translate(-504.974 -103.832)" fill="#e61837"/>
      <path id="Path_2" data-name="Path 2" d="M1154.413,109.179c-6.818-.712-13.13-3.6-19.068-8.672-1.161-.993-2.154-1.8-2.21-1.8s-.094,1.948-.094,4.308v4.308H1113V0h20.041V17.419c0,9.59.056,17.419.15,17.419a7.03,7.03,0,0,0,1.068-.862c6.949-6.293,13.842-9.4,22.252-9.983a39.5,39.5,0,0,1,9.964.637,36.175,36.175,0,0,1,20.472,12.362,41.792,41.792,0,0,1,9.627,21.54,75.013,75.013,0,0,1,.094,15.6A42.068,42.068,0,0,1,1183.8,98.952,36.191,36.191,0,0,1,1154.413,109.179Zm5.151-18.88a20.5,20.5,0,0,0,9.833-5.226,23.685,23.685,0,0,0,7.192-13.8,42.554,42.554,0,0,0,.075-9.009,22.764,22.764,0,0,0-6.518-13.392,20.119,20.119,0,0,0-13.28-6.181,22.041,22.041,0,0,0-18.337,6.612c-4.514,4.776-6.406,10.377-6.181,18.225.206,7.3,2.266,12.531,6.687,16.951a21.3,21.3,0,0,0,12.568,6.181,31.584,31.584,0,0,0,7.96-.356Z" transform="translate(-905.523 0)" fill="#e61837"/>
      <path id="Path_3" data-name="Path 3" d="M34.4,220.065c-.037-.131-6.593-18.318-14.553-40.42S5.329,139.356,5.291,139.225c-.075-.169,1.967-.225,9.815-.225h9.908l8.11,23c4.477,12.643,8.185,23.057,8.26,23.132s4.083-10.264,8.916-23L59.085,139H71.259l8.6,22.757c4.739,12.531,8.653,22.813,8.728,22.851s3.8-10.189,8.279-22.72l8.166-22.795,9.946-.056c5.469-.019,9.946.019,9.946.094,0,.094-6.649,18.356-14.778,40.607L95.384,220.2H82.535L73.882,197.12c-4.739-12.7-8.672-23.132-8.747-23.188-.056-.056-.225.206-.375.6-.169.393-4.2,10.845-8.953,23.244l-8.691,22.514H40.8c-4.87,0-6.331-.056-6.406-.225Z" transform="translate(-5.289 -112.965)" fill="#e61837"/>
      <path id="Path_4" data-name="Path 4" d="M2512.041,160.7a12.224,12.224,0,0,1-6.537-4.739,11.232,11.232,0,0,1-.262-11.838,12.937,12.937,0,0,1,4.121-4.064,11.177,11.177,0,0,1,9.009-.862,13.356,13.356,0,0,1,2.641,1.255,11.9,11.9,0,0,1,4.739,6.612,14.623,14.623,0,0,1,0,5.563,11.816,11.816,0,0,1-8.073,8.073,15.017,15.017,0,0,1-5.638,0Z" transform="translate(-2035.729 -112.655)" fill="#e61837"/>
    </g>
    <g id="Group_2" data-name="Group 2" transform="translate(382.763 460.243)">
      <path id="Path_5" data-name="Path 5" d="M2251.826,212.954c-9.047-.805-16.258-3.54-22.476-8.5a59.63,59.63,0,0,1-7.08-7.174,42.532,42.532,0,0,1-8.653-19.236,58.631,58.631,0,0,1-.393-12.193,42.58,42.58,0,0,1,12.568-26.222,39.576,39.576,0,0,1,26.766-11.969,51.3,51.3,0,0,1,9.8.393,31.227,31.227,0,0,1,4.87,1.086c.075.056-.3.637-.843,1.274a15.9,15.9,0,0,0-3.465,6.8l-.281,1.236-1.143-.243a31.264,31.264,0,0,0-32.834,14.4,31.515,31.515,0,0,0-4.5,10.995c-.468,2.191-.506,2.678-.524,6.949a27.947,27.947,0,0,0,.431,6.724,31.986,31.986,0,0,0,17.307,22.87,32.867,32.867,0,0,0,31.8-2.135,30.351,30.351,0,0,0,10.77-12.568,31.544,31.544,0,0,0,3.334-14.8,29.867,29.867,0,0,0-.412-5.769,36.732,36.732,0,0,0-2.248-7.679l-.543-1.2.9-.318a16.81,16.81,0,0,0,6.668-5.45c.674-.993.712-1.011.955-.656a42.174,42.174,0,0,1,2.959,6.8,47.292,47.292,0,0,1,1.985,9.084,63.442,63.442,0,0,1-.375,12.68,43.343,43.343,0,0,1-12.493,23.45,38.828,38.828,0,0,1-22.083,10.938A73.128,73.128,0,0,1,2251.826,212.954Z" transform="translate(-2091.308 -103.681)" fill="#fff"/>
      <path id="Path_6" data-name="Path 6" d="M3084.43,109.254a39.6,39.6,0,0,1-25.173-11.575A42.549,42.549,0,0,1,3046.2,64.619a40.984,40.984,0,0,1,12.961-28.863,39.752,39.752,0,0,1,23.226-11.5,56.815,56.815,0,0,1,10.845-.094,38.058,38.058,0,0,1,26,15.115,10.394,10.394,0,0,0,1.311,1.555c.075,0,.131-9.178.131-20.416V0h10.115V107.324h-10.115V93.183l-1.348,1.5c-7.811,8.728-16.932,13.542-27.5,14.5a54.654,54.654,0,0,1-7.4.075Zm9.028-9.7a34.293,34.293,0,0,0,17.363-7.923,31.067,31.067,0,0,0,8.635-12.961,38.432,38.432,0,0,0,0-23.413,32.5,32.5,0,0,0-19.8-19.76c-3.877-1.292-5.319-1.48-10.545-1.48-4.139,0-4.907.037-6.593.412a31.972,31.972,0,0,0-22.4,17.55,33.1,33.1,0,0,0,1.218,31.748,32.111,32.111,0,0,0,23.563,15.9,43.6,43.6,0,0,0,8.56-.075Z" transform="translate(-2768.357)" fill="#fff"/>
      <path id="Path_7" data-name="Path 7" d="M1597.595,219.983c-.056-.131-7.773-18.243-17.176-40.233s-17.157-40.176-17.251-40.4l-.169-.431h10.583l12.437,29.5c6.837,16.22,12.493,29.5,12.549,29.5s5.938-13.261,13.055-29.463l12.924-29.444.937-.056.936-.056,13.036,29.463c7.155,16.2,13.111,29.444,13.186,29.425.094-.037,5.863-13.28,12.812-29.463l12.643-29.407h10.714l-5.02,11.557c-2.753,6.368-10.695,24.649-17.625,40.607l-12.624,29.032h-1.854l-12.961-29.032c-7.118-15.958-13.036-29.051-13.111-29.069-.075-.037-4.1,8.822-8.934,19.667-4.851,10.826-10.695,23.937-13,29.126l-4.214,9.4h-.88C1598.044,220.208,1597.651,220.114,1597.595,219.983Z" transform="translate(-1563 -112.884)" fill="#fff"/>
      <path id="Path_8" data-name="Path 8" d="M2710,169.892V129.248h10.676l.037,5.9.056,5.9,1.311-1.817a46.274,46.274,0,0,1,8.466-8.447,20.469,20.469,0,0,1,9.478-3.577c.993-.112,1.967-.206,2.191-.206.375,0,.375.094.375,5.038v5.02l-2.473.094a11,11,0,0,0-4.121.656c-4.42,1.536-8.335,5.207-10.826,10.171-2.416,4.814-3.465,9.271-4.139,17.794-.15,1.742-.244,10.245-.3,23.75l-.094,21.015H2710Z" transform="translate(-2495.164 -103.213)" fill="#fff"/>
      <path id="Path_9" data-name="Path 9" d="M2940,53.662V0h10.3V107.324H2940Z" transform="translate(-2682.084)" fill="#fff"/>
    </g>
  </g>
</svg>
