<svg xmlns="http://www.w3.org/2000/svg" width="60.441" height="60.441" viewBox="0 0 60.441 60.441">
  <g id="servers_1_" data-name="servers (1)" transform="translate(-1.831 -1.831)">
    <g id="Group_6" data-name="Group 6" transform="translate(1.831 1.831)">
      <g id="Group_5" data-name="Group 5">
        <path id="Path_34" data-name="Path 34" d="M173.331,323.778A3.782,3.782,0,0,0,169.553,320H131.778A3.782,3.782,0,0,0,128,323.778v5.037a3.749,3.749,0,0,0,.982,2.518,3.75,3.75,0,0,0-.982,2.518v5.037a3.782,3.782,0,0,0,3.778,3.778h37.776a3.782,3.782,0,0,0,3.778-3.778v-5.037a3.749,3.749,0,0,0-.982-2.518,3.75,3.75,0,0,0,.982-2.518Zm-2.518,15.11a1.261,1.261,0,0,1-1.259,1.259H131.778a1.261,1.261,0,0,1-1.259-1.259v-5.037a1.261,1.261,0,0,1,1.259-1.259h37.776a1.261,1.261,0,0,1,1.259,1.259Zm0-10.073a1.261,1.261,0,0,1-1.259,1.259H131.778a1.261,1.261,0,0,1-1.259-1.259v-5.037a1.261,1.261,0,0,1,1.259-1.259h37.776a1.261,1.261,0,0,1,1.259,1.259Z" transform="translate(-112.89 -282.224)" fill="#fff"/>
        <path id="Path_35" data-name="Path 35" d="M374,362.667H363.926a1.259,1.259,0,1,0,0,2.518H374a1.259,1.259,0,1,0,0-2.518Z" transform="translate(-319.854 -319.854)" fill="#fff"/>
        <path id="Path_36" data-name="Path 36" d="M374,448H363.926a1.259,1.259,0,1,0,0,2.518H374A1.259,1.259,0,1,0,374,448Z" transform="translate(-319.854 -395.114)" fill="#fff"/>
        <path id="Path_37" data-name="Path 37" d="M171.925,448a1.259,1.259,0,1,0,1.259,1.259A1.26,1.26,0,0,0,171.925,448Z" transform="translate(-150.519 -395.114)" fill="#fff"/>
        <path id="Path_38" data-name="Path 38" d="M171.925,362.667a1.259,1.259,0,1,0,1.259,1.259A1.26,1.26,0,0,0,171.925,362.667Z" transform="translate(-150.519 -319.854)" fill="#fff"/>
        <path id="Path_39" data-name="Path 39" d="M15.352,33.877c-.121-1.2-.149-2.433-.179-3.657H27.7V34a1.259,1.259,0,1,0,2.518,0V30.221H42.752c-.03,1.2-.058,2.4-.176,3.581a1.26,1.26,0,0,0,1.131,1.375,1.277,1.277,0,0,0,1.378-1.131c.123-1.259.154-2.546.186-3.825H55.352a26.936,26.936,0,0,1-.38,3.558,1.258,1.258,0,1,0,2.473.458A28.963,28.963,0,1,0,0,28.944c0,.008,0,.013,0,.018s0,.013,0,.018A28.879,28.879,0,0,0,10.575,51.337a1.239,1.239,0,0,0,.8.287,1.264,1.264,0,0,0,.8-2.236A26.588,26.588,0,0,1,8.21,45.331h3.123a1.259,1.259,0,1,0,0-2.518h-4.9A26.338,26.338,0,0,1,2.594,30.221H12.655c.033,1.3.066,2.617.194,3.9A1.255,1.255,0,0,0,14.1,35.257l.128,0A1.26,1.26,0,0,0,15.352,33.877ZM55.346,27.7H45.3A47.712,47.712,0,0,0,43.4,15.11h8.051A26.232,26.232,0,0,1,55.346,27.7ZM49.7,12.592H42.543A25.164,25.164,0,0,0,37.2,3.846,26.5,26.5,0,0,1,49.7,12.592ZM30.221,2.647c3.8.69,7.205,4.458,9.514,9.945H30.221Zm0,12.464H40.672A44.13,44.13,0,0,1,42.78,27.7H30.221ZM27.7,2.647v9.945H18.188C20.5,7.1,23.9,3.337,27.7,2.647ZM12.627,27.7H2.586a26.231,26.231,0,0,1,3.9-12.592h8.041A47.717,47.717,0,0,0,12.627,27.7Zm-4.39-15.11A26.522,26.522,0,0,1,20.716,3.851a25.191,25.191,0,0,0-5.336,8.741Zm9.013,2.518H27.7V27.7H15.146A44.131,44.131,0,0,1,17.251,15.11Z" fill="#fff"/>
      </g>
    </g>
  </g>
</svg>
