<svg id="noun_broadband_2521999" xmlns="http://www.w3.org/2000/svg" width="62.086" height="47.805" viewBox="0 0 62.086 47.805">
  <path id="Path_16" data-name="Path 16" d="M58.422,43.775H38.162V34.463a1.765,1.765,0,0,0-3.479,0v9.312H14.424c-5,0-9.044,3.407-9.044,7.609v4.829c0,4.2,4.049,7.609,9.044,7.609h1.927a5.564,5.564,0,0,0,5.291,3.229,5.564,5.564,0,0,0,5.291-3.229H45.913a5.949,5.949,0,0,0,10.582,0h1.927c5,0,9.044-3.407,9.044-7.609V51.367c-.012-4.2-4.057-7.591-9.044-7.591ZM63.834,56.2c0,2.514-2.425,4.55-5.413,4.554h-44c-2.988,0-5.409-2.04-5.413-4.554V51.367c0-2.514,2.425-4.55,5.413-4.554h44c2.988,0,5.409,2.04,5.413,4.554Z" transform="translate(-5.38 -19.246)" fill="#fff"/>
  <path id="Path_17" data-name="Path 17" d="M30.581,16.3c7.064-5.943,18.517-5.943,25.582,0a1.584,1.584,0,0,0,1.969,0,1.045,1.045,0,0,0,0-1.656c-8.151-6.859-21.368-6.859-29.519,0a1.045,1.045,0,0,0,0,1.656A1.584,1.584,0,0,0,30.581,16.3Z" transform="translate(-12.325 -9.501)" fill="#fff"/>
  <path id="Path_18" data-name="Path 18" d="M55.17,22.459a1.485,1.485,0,0,0,1.343-.76,1.091,1.091,0,0,0-.314-1.336,18.285,18.285,0,0,0-22.729,0,1.108,1.108,0,0,0,0,1.756,1.679,1.679,0,0,0,2.087,0,14.961,14.961,0,0,1,18.6,0A1.612,1.612,0,0,0,55.17,22.459Z" transform="translate(-13.796 -12.364)" fill="#fff"/>
  <path id="Path_19" data-name="Path 19" d="M39.212,27.067a1.045,1.045,0,0,0,0,1.656,1.584,1.584,0,0,0,1.969,0,8.707,8.707,0,0,1,10.825,0,1.584,1.584,0,0,0,1.969,0,1.045,1.045,0,0,0,0-1.656,11.873,11.873,0,0,0-14.763,0Z" transform="translate(-15.55 -15.718)" fill="#fff"/>
  <ellipse id="Ellipse_1" data-name="Ellipse 1" cx="2.741" cy="2.306" rx="2.741" ry="2.306" transform="translate(38.209 33.356)" fill="#fff"/>
  <ellipse id="Ellipse_2" data-name="Ellipse 2" cx="2.741" cy="2.306" rx="2.741" ry="2.306" transform="translate(47.128 33.356)" fill="#fff"/>
</svg>
