<svg xmlns="http://www.w3.org/2000/svg" width="65.502" height="55.104" viewBox="0 0 65.502 55.104">
  <g id="servers_2_" data-name="servers (2)" transform="translate(-3.601 -3.03)">
    <g id="Group_9" data-name="Group 9" transform="translate(3.601 3.03)">
      <g id="Group_8" data-name="Group 8" transform="translate(0 0)">
        <path id="Path_40" data-name="Path 40" d="M279.2,405.323H257.365a1.165,1.165,0,1,0,0,2.3H279.2a1.165,1.165,0,1,0,0-2.3Z" transform="translate(-223.249 -361.699)" fill="#fff"/>
        <path id="Path_41" data-name="Path 41" d="M279.2,447.989H257.365a1.165,1.165,0,1,0,0,2.3H279.2a1.165,1.165,0,1,0,0-2.3Z" transform="translate(-223.249 -399.773)" fill="#fff"/>
        <path id="Path_42" data-name="Path 42" d="M46.761,405.323c-2.257,0-4.094,1.545-4.094,3.444s1.837,3.444,4.094,3.444,4.094-1.545,4.094-3.444S49.018,405.323,46.761,405.323Zm0,4.592a1.165,1.165,0,1,1,1.365-1.148A1.271,1.271,0,0,1,46.761,409.915Z" transform="translate(-37.208 -361.699)" fill="#fff"/>
        <path id="Path_43" data-name="Path 43" d="M46.761,277.323c-2.257,0-4.094,1.545-4.094,3.444s1.837,3.444,4.094,3.444,4.094-1.545,4.094-3.444S49.018,277.323,46.761,277.323Zm0,4.592a1.165,1.165,0,1,1,1.365-1.148A1.271,1.271,0,0,1,46.761,281.915Z" transform="translate(-37.208 -247.476)" fill="#fff"/>
        <path id="Path_44" data-name="Path 44" d="M279.2,191.989H257.365a1.165,1.165,0,1,0,0,2.3H279.2a1.165,1.165,0,1,0,0-2.3Z" transform="translate(-223.249 -171.326)" fill="#fff"/>
        <path id="Path_45" data-name="Path 45" d="M65.5,21.822V17.23a5.052,5.052,0,0,0-1.034-3c-.019-.032-.022-.069-.044-.1L55.986,2.718A7.152,7.152,0,0,0,50.191.011H15.319A7.149,7.149,0,0,0,9.525,2.718L1.086,14.13c-.014.018-.014.039-.027.06A5.061,5.061,0,0,0,0,17.23v4.592a5.493,5.493,0,0,0,2.773,4.592A5.5,5.5,0,0,0,0,31.006V35.6a5.493,5.493,0,0,0,2.773,4.592A5.5,5.5,0,0,0,0,44.783v4.592c0,3.164,3.062,5.74,6.823,5.74H58.679c3.761,0,6.823-2.576,6.823-5.74V44.783a5.493,5.493,0,0,0-2.773-4.592A5.493,5.493,0,0,0,65.5,35.6V31.006a5.493,5.493,0,0,0-2.773-4.592A5.49,5.49,0,0,0,65.5,21.822ZM11.842,3.93A4.285,4.285,0,0,1,15.317,2.3H50.188A4.285,4.285,0,0,1,53.663,3.93l5.631,7.612c-.2-.016-.4-.053-.614-.053H6.823c-.21,0-.407.037-.611.053ZM62.773,44.783v4.592c0,1.9-1.837,3.444-4.094,3.444H6.823c-2.257,0-4.094-1.545-4.094-3.444V44.783c0-1.9,1.837-3.444,4.094-3.444H58.679C60.936,41.339,62.773,42.884,62.773,44.783Zm0-13.777V35.6c0,1.9-1.837,3.444-4.094,3.444H6.823c-2.257,0-4.094-1.545-4.094-3.444V31.006c0-1.9,1.837-3.444,4.094-3.444H58.679C60.936,27.562,62.773,29.107,62.773,31.006Zm0-9.184c0,1.9-1.837,3.444-4.094,3.444H6.823c-2.257,0-4.094-1.545-4.094-3.444V17.23c0-1.9,1.837-3.444,4.094-3.444H58.679c2.257,0,4.094,1.545,4.094,3.444v4.592Z" transform="translate(0 -0.011)" fill="#fff"/>
        <path id="Path_46" data-name="Path 46" d="M279.2,149.323H257.365a1.165,1.165,0,1,0,0,2.3H279.2a1.165,1.165,0,1,0,0-2.3Z" transform="translate(-223.249 -133.252)" fill="#fff"/>
        <path id="Path_47" data-name="Path 47" d="M279.2,319.989H257.365a1.165,1.165,0,1,0,0,2.3H279.2a1.165,1.165,0,1,0,0-2.3Z" transform="translate(-223.249 -285.55)" fill="#fff"/>
        <path id="Path_48" data-name="Path 48" d="M279.2,277.323H257.365a1.165,1.165,0,1,0,0,2.3H279.2a1.165,1.165,0,1,0,0-2.3Z" transform="translate(-223.249 -247.476)" fill="#fff"/>
        <path id="Path_49" data-name="Path 49" d="M46.761,149.323c-2.257,0-4.094,1.545-4.094,3.444s1.837,3.444,4.094,3.444,4.094-1.545,4.094-3.444S49.018,149.323,46.761,149.323Zm0,4.592a1.165,1.165,0,1,1,1.365-1.148A1.271,1.271,0,0,1,46.761,153.915Z" transform="translate(-37.208 -133.252)" fill="#fff"/>
      </g>
    </g>
  </g>
</svg>
