<svg id="Group_7" data-name="Group 7" xmlns="http://www.w3.org/2000/svg" width="65.502" height="45.572" viewBox="0 0 65.502 45.572">
  <text id="www." transform="translate(4.877 27.327)" fill="#fff" font-size="16" font-family="UDDigiKyokashoNK-B, UD Digi Kyokasho NK-B" letter-spacing="0.019em"><tspan x="0" y="0">www.</tspan></text>
  <path id="Subtraction_1" data-name="Subtraction 1" d="M-6119.974,2146.7h-2.637v-2.664h1.826c2.015,0,3.648-2.149,3.65-4.8V2118.46c0-2.647-1.635-4.792-3.65-4.8h-1.826V2111h2.637a4.361,4.361,0,0,1,2.132.565,5.658,5.658,0,0,1,1.74,1.542,7.549,7.549,0,0,1,1.174,2.287,9.1,9.1,0,0,1,.43,2.8v21.314a9.1,9.1,0,0,1-.43,2.8,7.607,7.607,0,0,1-1.174,2.287,5.641,5.641,0,0,1-1.74,1.541A4.34,4.34,0,0,1-6119.974,2146.7Zm-10.343,0h-44.209a4.342,4.342,0,0,1-2.13-.565,5.643,5.643,0,0,1-1.741-1.541,7.59,7.59,0,0,1-1.173-2.286,9.111,9.111,0,0,1-.431-2.8v-21.314a9.079,9.079,0,0,1,.432-2.8,7.591,7.591,0,0,1,1.172-2.287,5.65,5.65,0,0,1,1.741-1.542,4.349,4.349,0,0,1,2.13-.565h44.209v2.664h-43.4c-2.015,0-3.648,2.148-3.651,4.8v20.781c0,2.646,1.636,4.792,3.651,4.8h43.4Z" transform="translate(6180 -2106.064)" fill="#fff"/>
  <rect id="Rectangle_28" data-name="Rectangle 28" width="3.304" height="45.572" rx="1.652" transform="translate(51.953 0)" fill="#fff"/>
  <rect id="Rectangle_29" data-name="Rectangle 29" width="2.17" height="9.911" rx="1.085" transform="translate(58.561 0) rotate(90)" fill="#fff"/>
  <rect id="Rectangle_30" data-name="Rectangle 30" width="2.17" height="9.911" rx="1.085" transform="translate(58.561 43.402) rotate(90)" fill="#fff"/>
</svg>
