<svg id="twitter" xmlns="http://www.w3.org/2000/svg" width="22.955" height="18.651" viewBox="0 0 22.955 18.651">
  <g id="Group_15" data-name="Group 15">
    <path id="Path_64" data-name="Path 64" d="M22.955,50.208a9.812,9.812,0,0,1-2.712.743,4.68,4.68,0,0,0,2.07-2.6,9.4,9.4,0,0,1-2.984,1.139,4.706,4.706,0,0,0-8.141,3.218A4.846,4.846,0,0,0,11.3,53.78a13.32,13.32,0,0,1-9.7-4.922,4.707,4.707,0,0,0,1.446,6.29,4.648,4.648,0,0,1-2.126-.58v.052a4.728,4.728,0,0,0,3.77,4.624,4.7,4.7,0,0,1-1.234.155,4.161,4.161,0,0,1-.891-.08,4.751,4.751,0,0,0,4.4,3.278A9.456,9.456,0,0,1,1.126,64.6,8.814,8.814,0,0,1,0,64.539a13.249,13.249,0,0,0,7.219,2.112A13.3,13.3,0,0,0,20.614,53.26c0-.208-.007-.409-.017-.608A9.388,9.388,0,0,0,22.955,50.208Z" transform="translate(0 -48)" fill="#fff"/>
  </g>
</svg>
